<?xml version="1.0" encoding="UTF-8" standalone="no"?>
<!-- Created with Inkscape (http://www.inkscape.org/) -->

<svg
   xmlns:dc="http://purl.org/dc/elements/1.1/"
   xmlns:cc="http://creativecommons.org/ns#"
   xmlns:rdf="http://www.w3.org/1999/02/22-rdf-syntax-ns#"
   xmlns:svg="http://www.w3.org/2000/svg"
   xmlns="http://www.w3.org/2000/svg"
   xmlns:sodipodi="http://sodipodi.sourceforge.net/DTD/sodipodi-0.dtd"
   xmlns:inkscape="http://www.inkscape.org/namespaces/inkscape"
   id="svg3004"
   version="1.1"
   inkscape:version="0.91 r13725"
   width="286.13174"
   height="373.09875"
   xml:space="preserve"
   sodipodi:docname="top_5_energy_aggregate.svg"
   inkscape:export-filename="/home/dk3810/Dropbox/MyWork/imperial/PhD/writing/presentations/Alstom_2015/images/top_5_energy_aggregate.png"
   inkscape:export-xdpi="120.6115"
   inkscape:export-ydpi="120.6115"><metadata
     id="metadata3010"><rdf:RDF><cc:Work
         rdf:about=""><dc:format>image/svg+xml</dc:format><dc:type
           rdf:resource="http://purl.org/dc/dcmitype/StillImage" /><dc:title></dc:title></cc:Work></rdf:RDF></metadata><defs
     id="defs3008"><clipPath
       clipPathUnits="userSpaceOnUse"
       id="clipPath3020"><path
         d="m 7,2 2463,0 0,4208 L 7,4210 7,2 Z"
         id="path3022"
         inkscape:connector-curvature="0" /></clipPath><clipPath
       clipPathUnits="userSpaceOnUse"
       id="clipPath3052"><path
         d="m 79.7617,3807.96 2275,0 0,238.699 -2275,0 0,-238.699 z"
         id="path3054"
         inkscape:connector-curvature="0" /></clipPath><clipPath
       clipPathUnits="userSpaceOnUse"
       id="clipPath3108"><path
         d="m 7,2 2463,0 0,4208 L 7,4210 7,2 Z"
         id="path3110"
         inkscape:connector-curvature="0" /></clipPath><clipPath
       clipPathUnits="userSpaceOnUse"
       id="clipPath3146"><path
         d="m 79.7617,3377.96 2275,0 0,238.699 -2275,0 0,-238.699 z"
         id="path3148"
         inkscape:connector-curvature="0" /></clipPath><clipPath
       clipPathUnits="userSpaceOnUse"
       id="clipPath3202"><path
         d="m 7,2 2463,0 0,4208 L 7,4210 7,2 Z"
         id="path3204"
         inkscape:connector-curvature="0" /></clipPath><clipPath
       clipPathUnits="userSpaceOnUse"
       id="clipPath3240"><path
         d="m 79.7617,2947.96 2275,0 0,238.699 -2275,0 0,-238.699 z"
         id="path3242"
         inkscape:connector-curvature="0" /></clipPath><clipPath
       clipPathUnits="userSpaceOnUse"
       id="clipPath3296"><path
         d="m 7,2 2463,0 0,4208 L 7,4210 7,2 Z"
         id="path3298"
         inkscape:connector-curvature="0" /></clipPath><clipPath
       clipPathUnits="userSpaceOnUse"
       id="clipPath3334"><path
         d="m 79.7617,2517.96 2275,0 0,238.699 -2275,0 0,-238.699 z"
         id="path3336"
         inkscape:connector-curvature="0" /></clipPath><clipPath
       clipPathUnits="userSpaceOnUse"
       id="clipPath3390"><path
         d="m 7,2 2463,0 0,4208 L 7,4210 7,2 Z"
         id="path3392"
         inkscape:connector-curvature="0" /></clipPath><clipPath
       clipPathUnits="userSpaceOnUse"
       id="clipPath3428"><path
         d="m 79.7617,2088.96 2275,0 0,238.699 -2275,0 0,-238.699 z"
         id="path3430"
         inkscape:connector-curvature="0" /></clipPath><clipPath
       clipPathUnits="userSpaceOnUse"
       id="clipPath3484"><path
         d="m 7,2 2463,0 0,4208 L 7,4210 7,2 Z"
         id="path3486"
         inkscape:connector-curvature="0" /></clipPath><clipPath
       clipPathUnits="userSpaceOnUse"
       id="clipPath3522"><path
         d="m 79.7617,1658.96 2275,0 0,238.699 -2275,0 0,-238.699 z"
         id="path3524"
         inkscape:connector-curvature="0" /></clipPath><clipPath
       clipPathUnits="userSpaceOnUse"
       id="clipPath3578"><path
         d="m 7,2 2463,0 0,4208 L 7,4210 7,2 Z"
         id="path3580"
         inkscape:connector-curvature="0" /></clipPath><clipPath
       clipPathUnits="userSpaceOnUse"
       id="clipPath3616"><path
         d="m 79.7617,1228.96 2275,0 0,238.699 -2275,0 0,-238.699 z"
         id="path3618"
         inkscape:connector-curvature="0" /></clipPath><clipPath
       clipPathUnits="userSpaceOnUse"
       id="clipPath3672"><path
         d="m 7,2 2463,0 0,4208 L 7,4210 7,2 Z"
         id="path3674"
         inkscape:connector-curvature="0" /></clipPath><clipPath
       clipPathUnits="userSpaceOnUse"
       id="clipPath3710"><path
         d="m 79.7617,799.66 2275,0 0,238.699 -2275,0 0,-238.699 z"
         id="path3712"
         inkscape:connector-curvature="0" /></clipPath><clipPath
       clipPathUnits="userSpaceOnUse"
       id="clipPath3766"><path
         d="m 7,2 2463,0 0,4208 L 7,4210 7,2 Z"
         id="path3768"
         inkscape:connector-curvature="0" /></clipPath><clipPath
       clipPathUnits="userSpaceOnUse"
       id="clipPath3836"><path
         d="m 79.7617,369.961 2275,0 0,238.699 -2275,0 0,-238.699 z"
         id="path3838"
         inkscape:connector-curvature="0" /></clipPath><clipPath
       clipPathUnits="userSpaceOnUse"
       id="clipPath3892"><path
         d="m 7,2 2463,0 0,4208 L 7,4210 7,2 Z"
         id="path3894"
         inkscape:connector-curvature="0" /></clipPath><clipPath
       id="clipPath4250"
       clipPathUnits="userSpaceOnUse"><path
         id="path4252"
         d="m 4,2 1946,0 0,2508 L 4,2510 4,2 Z"
         inkscape:connector-curvature="0" /></clipPath><clipPath
       id="clipPath4228"
       clipPathUnits="userSpaceOnUse"><path
         id="path4230"
         d="m 419.738,113.449 1464,0 0,2293 -1464,0 0,-2293 z"
         inkscape:connector-curvature="0" /></clipPath><clipPath
       id="clipPath4204"
       clipPathUnits="userSpaceOnUse"><path
         id="path4206"
         d="m 4,2 1946,0 0,2508 L 4,2510 4,2 Z"
         inkscape:connector-curvature="0" /></clipPath><clipPath
       id="clipPath4194"
       clipPathUnits="userSpaceOnUse"><path
         id="path4196"
         d="m 419.738,113.449 1464,0 0,2293 -1464,0 0,-2293 z"
         inkscape:connector-curvature="0" /></clipPath><clipPath
       id="clipPath4176"
       clipPathUnits="userSpaceOnUse"><path
         id="path4178"
         d="m 4,2 1946,0 0,2508 L 4,2510 4,2 Z"
         inkscape:connector-curvature="0" /></clipPath><clipPath
       id="clipPath4166"
       clipPathUnits="userSpaceOnUse"><path
         id="path4168"
         d="m 419.738,113.449 1464,0 0,2293 -1464,0 0,-2293 z"
         inkscape:connector-curvature="0" /></clipPath><clipPath
       id="clipPath4148"
       clipPathUnits="userSpaceOnUse"><path
         id="path4150"
         d="m 4,2 1946,0 0,2508 L 4,2510 4,2 Z"
         inkscape:connector-curvature="0" /></clipPath><clipPath
       id="clipPath4138"
       clipPathUnits="userSpaceOnUse"><path
         id="path4140"
         d="m 419.738,113.449 1464,0 0,2293 -1464,0 0,-2293 z"
         inkscape:connector-curvature="0" /></clipPath><clipPath
       id="clipPath4120"
       clipPathUnits="userSpaceOnUse"><path
         id="path4122"
         d="m 4,2 1946,0 0,2508 L 4,2510 4,2 Z"
         inkscape:connector-curvature="0" /></clipPath><clipPath
       id="clipPath4110"
       clipPathUnits="userSpaceOnUse"><path
         id="path4112"
         d="m 419.738,113.449 1464,0 0,2293 -1464,0 0,-2293 z"
         inkscape:connector-curvature="0" /></clipPath><clipPath
       id="clipPath4092"
       clipPathUnits="userSpaceOnUse"><path
         id="path4094"
         d="m 4,2 1946,0 0,2508 L 4,2510 4,2 Z"
         inkscape:connector-curvature="0" /></clipPath><clipPath
       id="clipPath4082"
       clipPathUnits="userSpaceOnUse"><path
         id="path4084"
         d="m 419.738,113.449 1464,0 0,2293 -1464,0 0,-2293 z"
         inkscape:connector-curvature="0" /></clipPath><clipPath
       id="clipPath4064"
       clipPathUnits="userSpaceOnUse"><path
         id="path4066"
         d="m 4,2 1946,0 0,2508 L 4,2510 4,2 Z"
         inkscape:connector-curvature="0" /></clipPath><clipPath
       id="clipPath4054"
       clipPathUnits="userSpaceOnUse"><path
         id="path4056"
         d="m 419.738,113.449 1464,0 0,2293 -1464,0 0,-2293 z"
         inkscape:connector-curvature="0" /></clipPath><clipPath
       id="clipPath4036"
       clipPathUnits="userSpaceOnUse"><path
         id="path4038"
         d="m 4,2 1946,0 0,2508 L 4,2510 4,2 Z"
         inkscape:connector-curvature="0" /></clipPath><clipPath
       id="clipPath4026"
       clipPathUnits="userSpaceOnUse"><path
         id="path4028"
         d="m 419.738,113.449 1464,0 0,2293 -1464,0 0,-2293 z"
         inkscape:connector-curvature="0" /></clipPath><clipPath
       id="clipPath4008"
       clipPathUnits="userSpaceOnUse"><path
         id="path4010"
         d="m 4,2 1946,0 0,2508 L 4,2510 4,2 Z"
         inkscape:connector-curvature="0" /></clipPath><clipPath
       id="clipPath3998"
       clipPathUnits="userSpaceOnUse"><path
         id="path4000"
         d="m 419.738,113.449 1464,0 0,2293 -1464,0 0,-2293 z"
         inkscape:connector-curvature="0" /></clipPath><clipPath
       id="clipPath3980"
       clipPathUnits="userSpaceOnUse"><path
         id="path3982"
         d="m 4,2 1946,0 0,2508 L 4,2510 4,2 Z"
         inkscape:connector-curvature="0" /></clipPath><clipPath
       id="clipPath3970"
       clipPathUnits="userSpaceOnUse"><path
         id="path3972"
         d="m 419.738,113.449 1464,0 0,2293 -1464,0 0,-2293 z"
         inkscape:connector-curvature="0" /></clipPath><clipPath
       id="clipPath3958"
       clipPathUnits="userSpaceOnUse"><path
         id="path3960"
         d="m 4,2 1946,0 0,2508 L 4,2510 4,2 Z"
         inkscape:connector-curvature="0" /></clipPath><clipPath
       id="clipPath4064-2"
       clipPathUnits="userSpaceOnUse"><path
         id="path4066-5"
         d="m 4,2 1946,0 0,2508 L 4,2510 4,2 Z"
         inkscape:connector-curvature="0" /></clipPath></defs><sodipodi:namedview
     pagecolor="#202020"
     bordercolor="#666666"
     borderopacity="1"
     objecttolerance="10"
     gridtolerance="10"
     guidetolerance="10"
     inkscape:pageopacity="0"
     inkscape:pageshadow="2"
     inkscape:window-width="1920"
     inkscape:window-height="1056"
     id="namedview3006"
     showgrid="false"
     showguides="false"
     inkscape:guide-bbox="true"
     units="mm"
     inkscape:zoom="1.4095107"
     inkscape:cx="146.43654"
     inkscape:cy="166.1446"
     inkscape:window-x="0"
     inkscape:window-y="24"
     inkscape:window-maximized="1"
     inkscape:current-layer="g3012"
     fit-margin-top="0"
     fit-margin-left="0"
     fit-margin-right="0"
     fit-margin-bottom="0"><sodipodi:guide
       orientation="1,0"
       position="-220.94155,373.21941"
       id="guide5017" /><sodipodi:guide
       orientation="0,1"
       position="-38.484081,2.7085157"
       id="guide5344" /><sodipodi:guide
       orientation="0,1"
       position="-50.022451,326.28454"
       id="guide5392" /><sodipodi:guide
       orientation="1,0"
       position="-358.54843,292.67277"
       id="guide5394" /><sodipodi:guide
       orientation="1,0"
       position="-3.3673015,249.02763"
       id="guide5396" /><sodipodi:guide
       orientation="1,0"
       position="28.739459,262.57267"
       id="guide5398" /></sodipodi:namedview><g
     id="g3012"
     inkscape:groupmode="layer"
     inkscape:label="ink_ext_XXXXXX"
     transform="matrix(1.25,0,0,-1.25,-375.60515,417.04545)"><g
       id="g3966"
       transform="matrix(0.12702081,0,0,0.12702081,290.11559,23.651047)"><g
         clip-path="url(#clipPath3970)"
         id="g3968"><path
           id="path3974"
           style="fill:none;stroke:#cccccc;stroke-width:10;stroke-linecap:round;stroke-linejoin:round;stroke-miterlimit:10;stroke-dasharray:none;stroke-opacity:1"
           d="m 419.758,113.398 1464.012,0"
           inkscape:connector-curvature="0" /></g></g><g
       id="g3976"
       transform="matrix(0.12702081,0,0,0.12702081,290.11559,23.651047)"
       style="fill:#ffffff"><g
         clip-path="url(#clipPath3980)"
         id="g3978"
         style="fill:#ffffff"><path
           id="path3984"
           style="fill:#ffffff;fill-opacity:1;fill-rule:nonzero;stroke:none"
           d="m 419.758,113.398 0,0"
           inkscape:connector-curvature="0" /><path
           id="path3986"
           style="fill:#ffffff;stroke:#262626;stroke-width:10;stroke-linecap:butt;stroke-linejoin:round;stroke-miterlimit:10;stroke-dasharray:none;stroke-opacity:1"
           d="m 419.758,113.398 0,0"
           inkscape:connector-curvature="0" /><g
           transform="scale(10,10)"
           id="g3988"
           style="fill:#ffffff"><text
             id="text3990"
             transform="matrix(1,0,0,-1,30.9441,9.13672)"
             style="fill:#ffffff"><tspan
               id="tspan3992"
               y="0"
               x="0"
               style="font-variant:normal;font-weight:normal;font-size:8px;font-family:Arial;-inkscape-font-specification:Arial;writing-mode:lr-tb;fill:#ffffff;fill-opacity:1;fill-rule:nonzero;stroke:none">0</tspan></text>
</g></g></g><g
       id="g3994"
       transform="matrix(0.12702081,0,0,0.12702081,290.11559,23.651047)"><g
         clip-path="url(#clipPath3998)"
         id="g3996"><path
           id="path4002"
           style="fill:none;stroke:#cccccc;stroke-width:10;stroke-linecap:round;stroke-linejoin:round;stroke-miterlimit:10;stroke-dasharray:none;stroke-opacity:1"
           d="m 419.758,400.051 1464.012,0"
           inkscape:connector-curvature="0" /></g></g><g
       id="g4004"
       transform="matrix(0.12702081,0,0,0.12702081,290.11559,23.651047)"
       style="fill:#ffffff"><g
         clip-path="url(#clipPath4008)"
         id="g4006"
         style="fill:#ffffff"><path
           id="path4012"
           style="fill:#ffffff;fill-opacity:1;fill-rule:nonzero;stroke:none"
           d="m 419.758,400.051 0,0"
           inkscape:connector-curvature="0" /><path
           id="path4014"
           style="fill:#ffffff;stroke:#262626;stroke-width:10;stroke-linecap:butt;stroke-linejoin:round;stroke-miterlimit:10;stroke-dasharray:none;stroke-opacity:1"
           d="m 419.758,400.051 0,0"
           inkscape:connector-curvature="0" /><g
           transform="scale(10,10)"
           id="g4016"
           style="fill:#ffffff"><text
             id="text4018"
             transform="matrix(1,0,0,-1,31.491,37.802)"
             style="fill:#ffffff"><tspan
               id="tspan4020"
               y="0"
               x="0"
               style="font-variant:normal;font-weight:normal;font-size:8px;font-family:Arial;-inkscape-font-specification:Arial;writing-mode:lr-tb;fill:#ffffff;fill-opacity:1;fill-rule:nonzero;stroke:none">1</tspan></text>
</g></g></g><g
       id="g4022"
       transform="matrix(0.12702081,0,0,0.12702081,290.11559,23.651047)"><g
         clip-path="url(#clipPath4026)"
         id="g4024"><path
           id="path4030"
           style="fill:none;stroke:#cccccc;stroke-width:10;stroke-linecap:round;stroke-linejoin:round;stroke-miterlimit:10;stroke-dasharray:none;stroke-opacity:1"
           d="m 419.758,686.699 1464.012,0"
           inkscape:connector-curvature="0" /></g></g><g
       id="g4032"
       transform="matrix(0.12702081,0,0,0.12702081,290.11559,23.651047)"
       style="fill:#ffffff"><g
         clip-path="url(#clipPath4036)"
         id="g4034"
         style="fill:#ffffff"><path
           id="path4040"
           style="fill:#ffffff;fill-opacity:1;fill-rule:nonzero;stroke:none"
           d="m 419.758,686.699 0,0"
           inkscape:connector-curvature="0" /><path
           id="path4042"
           style="fill:#ffffff;stroke:#262626;stroke-width:10;stroke-linecap:butt;stroke-linejoin:round;stroke-miterlimit:10;stroke-dasharray:none;stroke-opacity:1"
           d="m 419.758,686.699 0,0"
           inkscape:connector-curvature="0" /><g
           transform="scale(10,10)"
           id="g4044"
           style="fill:#ffffff"><text
             id="text4046"
             transform="matrix(1,0,0,-1,31.2723,66.4668)"
             style="fill:#ffffff"><tspan
               id="tspan4048"
               y="0"
               x="0"
               style="font-variant:normal;font-weight:normal;font-size:8px;font-family:Arial;-inkscape-font-specification:Arial;writing-mode:lr-tb;fill:#ffffff;fill-opacity:1;fill-rule:nonzero;stroke:none">2</tspan></text>
</g></g></g><g
       id="g4050"
       transform="matrix(0.12702081,0,0,0.12702081,290.11559,23.651047)"><g
         clip-path="url(#clipPath4054)"
         id="g4052"><path
           id="path4058"
           style="fill:none;stroke:#cccccc;stroke-width:10;stroke-linecap:round;stroke-linejoin:round;stroke-miterlimit:10;stroke-dasharray:none;stroke-opacity:1"
           d="m 419.758,973.352 1464.012,0"
           inkscape:connector-curvature="0" /></g></g><g
       id="g4060"
       transform="matrix(0.12702081,0,0,0.12702081,290.11559,23.651047)"
       style="fill:#ffffff"><g
         clip-path="url(#clipPath4064)"
         id="g4062"
         style="fill:#ffffff"><path
           id="path4068"
           style="fill:#ffffff;fill-opacity:1;fill-rule:nonzero;stroke:none"
           d="m 419.758,973.352 0,0"
           inkscape:connector-curvature="0" /><path
           id="path4070"
           style="fill:#ffffff;stroke:#262626;stroke-width:10;stroke-linecap:butt;stroke-linejoin:round;stroke-miterlimit:10;stroke-dasharray:none;stroke-opacity:1"
           d="m 419.758,973.352 0,0"
           inkscape:connector-curvature="0" /><g
           transform="scale(10,10)"
           id="g4072"
           style="fill:#ffffff"><text
             id="text4074"
             transform="matrix(1,0,0,-1,31.1316,95.132)"
             style="fill:#ffffff"><tspan
               id="tspan4076"
               y="0"
               x="0"
               style="font-variant:normal;font-weight:normal;font-size:8px;font-family:Arial;-inkscape-font-specification:Arial;writing-mode:lr-tb;fill:#ffffff;fill-opacity:1;fill-rule:nonzero;stroke:none">3</tspan></text>
</g></g></g><g
       id="g4078"
       transform="matrix(0.12702081,0,0,0.12702081,290.11559,23.651047)"><g
         clip-path="url(#clipPath4082)"
         id="g4080"><path
           id="path4086"
           style="fill:none;stroke:#cccccc;stroke-width:10;stroke-linecap:round;stroke-linejoin:round;stroke-miterlimit:10;stroke-dasharray:none;stroke-opacity:1"
           d="m 419.758,1260 1464.012,0"
           inkscape:connector-curvature="0" /></g></g><g
       id="g4088"
       transform="matrix(0.12702081,0,0,0.12702081,290.11559,23.651047)"
       style="fill:#ffffff"><g
         clip-path="url(#clipPath4092)"
         id="g4090"
         style="fill:#ffffff"><path
           id="path4096"
           style="fill:#ffffff;fill-opacity:1;fill-rule:nonzero;stroke:none"
           d="m 419.758,1260 0,0"
           inkscape:connector-curvature="0" /><path
           id="path4098"
           style="fill:#ffffff;stroke:#262626;stroke-width:10;stroke-linecap:butt;stroke-linejoin:round;stroke-miterlimit:10;stroke-dasharray:none;stroke-opacity:1"
           d="m 419.758,1260 0,0"
           inkscape:connector-curvature="0" /><g
           transform="scale(10,10)"
           id="g4100"
           style="fill:#ffffff"><text
             id="text4102"
             transform="matrix(1,0,0,-1,30.7254,123.797)"
             style="fill:#ffffff"><tspan
               id="tspan4104"
               y="0"
               x="0"
               style="font-variant:normal;font-weight:normal;font-size:8px;font-family:Arial;-inkscape-font-specification:Arial;writing-mode:lr-tb;fill:#ffffff;fill-opacity:1;fill-rule:nonzero;stroke:none">4</tspan></text>
</g></g></g><g
       id="g4106"
       transform="matrix(0.12702081,0,0,0.12702081,290.11559,23.651047)"><g
         clip-path="url(#clipPath4110)"
         id="g4108"><path
           id="path4114"
           style="fill:none;stroke:#cccccc;stroke-width:10;stroke-linecap:round;stroke-linejoin:round;stroke-miterlimit:10;stroke-dasharray:none;stroke-opacity:1"
           d="m 419.758,1546.65 1464.012,0"
           inkscape:connector-curvature="0" /></g></g><g
       id="g4116"
       transform="matrix(0.12702081,0,0,0.12702081,290.11559,23.651047)"
       style="fill:#ffffff"><g
         clip-path="url(#clipPath4120)"
         id="g4118"
         style="fill:#ffffff"><path
           id="path4124"
           style="fill:#ffffff;fill-opacity:1;fill-rule:nonzero;stroke:none"
           d="m 419.758,1546.65 0,0"
           inkscape:connector-curvature="0" /><path
           id="path4126"
           style="fill:#ffffff;stroke:#262626;stroke-width:10;stroke-linecap:butt;stroke-linejoin:round;stroke-miterlimit:10;stroke-dasharray:none;stroke-opacity:1"
           d="m 419.758,1546.65 0,0"
           inkscape:connector-curvature="0" /><g
           transform="scale(10,10)"
           id="g4128"
           style="fill:#ffffff"><text
             id="text4130"
             transform="matrix(1,0,0,-1,31.2098,152.462)"
             style="fill:#ffffff"><tspan
               id="tspan4132"
               y="0"
               x="0"
               style="font-variant:normal;font-weight:normal;font-size:8px;font-family:Arial;-inkscape-font-specification:Arial;writing-mode:lr-tb;fill:#ffffff;fill-opacity:1;fill-rule:nonzero;stroke:none">5</tspan></text>
</g></g></g><g
       id="g4134"
       transform="matrix(0.12702081,0,0,0.12702081,290.11559,23.651047)"><g
         clip-path="url(#clipPath4138)"
         id="g4136"><path
           id="path4142"
           style="fill:none;stroke:#cccccc;stroke-width:10;stroke-linecap:round;stroke-linejoin:round;stroke-miterlimit:10;stroke-dasharray:none;stroke-opacity:1"
           d="m 419.758,1833.3 1464.012,0"
           inkscape:connector-curvature="0" /></g></g><g
       id="g4144"
       transform="matrix(0.12702081,0,0,0.12702081,290.11559,23.651047)"
       style="fill:#ffffff"><g
         clip-path="url(#clipPath4148)"
         id="g4146"
         style="fill:#ffffff"><path
           id="path4152"
           style="fill:#ffffff;fill-opacity:1;fill-rule:nonzero;stroke:none"
           d="m 419.758,1833.3 0,0"
           inkscape:connector-curvature="0" /><path
           id="path4154"
           style="fill:#ffffff;stroke:#262626;stroke-width:10;stroke-linecap:butt;stroke-linejoin:round;stroke-miterlimit:10;stroke-dasharray:none;stroke-opacity:1"
           d="m 419.758,1833.3 0,0"
           inkscape:connector-curvature="0" /><g
           transform="scale(10,10)"
           id="g4156"
           style="fill:#ffffff"><text
             id="text4158"
             transform="matrix(1,0,0,-1,30.9441,181.127)"
             style="fill:#ffffff"><tspan
               id="tspan4160"
               y="0"
               x="0"
               style="font-variant:normal;font-weight:normal;font-size:8px;font-family:Arial;-inkscape-font-specification:Arial;writing-mode:lr-tb;fill:#ffffff;fill-opacity:1;fill-rule:nonzero;stroke:none">6</tspan></text>
</g></g></g><g
       id="g4162"
       transform="matrix(0.12702081,0,0,0.12702081,290.11559,23.651047)"><g
         clip-path="url(#clipPath4166)"
         id="g4164"><path
           id="path4170"
           style="fill:none;stroke:#cccccc;stroke-width:10;stroke-linecap:round;stroke-linejoin:round;stroke-miterlimit:10;stroke-dasharray:none;stroke-opacity:1"
           d="m 419.758,2119.95 1464.012,0"
           inkscape:connector-curvature="0" /></g></g><g
       id="g4172"
       transform="matrix(0.12702081,0,0,0.12702081,290.11559,23.651047)"
       style="fill:#ffffff"><g
         clip-path="url(#clipPath4176)"
         id="g4174"
         style="fill:#ffffff"><path
           id="path4180"
           style="fill:#ffffff;fill-opacity:1;fill-rule:nonzero;stroke:none"
           d="m 419.758,2119.95 0,0"
           inkscape:connector-curvature="0" /><path
           id="path4182"
           style="fill:#ffffff;stroke:#262626;stroke-width:10;stroke-linecap:butt;stroke-linejoin:round;stroke-miterlimit:10;stroke-dasharray:none;stroke-opacity:1"
           d="m 419.758,2119.95 0,0"
           inkscape:connector-curvature="0" /><g
           transform="scale(10,10)"
           id="g4184"
           style="fill:#ffffff"><text
             id="text4186"
             transform="matrix(1,0,0,-1,31.2254,209.792)"
             style="fill:#ffffff"><tspan
               id="tspan4188"
               y="0"
               x="0"
               style="font-variant:normal;font-weight:normal;font-size:8px;font-family:Arial;-inkscape-font-specification:Arial;writing-mode:lr-tb;fill:#ffffff;fill-opacity:1;fill-rule:nonzero;stroke:none">7</tspan></text>
</g></g></g><g
       id="g4190"
       transform="matrix(0.12702081,0,0,0.12702081,290.11559,23.651047)"><g
         clip-path="url(#clipPath4194)"
         id="g4192"><path
           id="path4198"
           style="fill:none;stroke:#cccccc;stroke-width:10;stroke-linecap:round;stroke-linejoin:round;stroke-miterlimit:10;stroke-dasharray:none;stroke-opacity:1"
           d="m 419.758,2406.6 1464.012,0"
           inkscape:connector-curvature="0" /></g></g><g
       id="g4202"
       clip-path="url(#clipPath4204)"
       transform="matrix(0.12702081,0,0,0.12702081,290.11559,23.651047)"><path
         inkscape:connector-curvature="0"
         d="m 419.758,2406.6 0,0"
         style="fill:#262626;fill-opacity:1;fill-rule:nonzero;stroke:none"
         id="path4208" /><path
         inkscape:connector-curvature="0"
         d="m 419.758,2406.6 0,0"
         style="fill:none;stroke:#262626;stroke-width:10;stroke-linecap:butt;stroke-linejoin:round;stroke-miterlimit:10;stroke-dasharray:none;stroke-opacity:1"
         id="path4210" /><g
         id="g4212"
         transform="scale(10,10)"
         style="fill:#ffffff"><text
           transform="matrix(1,0,0,-1,30.9754,238.457)"
           id="text4214"
           style="fill:#ffffff"><tspan
             style="font-variant:normal;font-weight:normal;font-size:8px;font-family:Arial;-inkscape-font-specification:Arial;writing-mode:lr-tb;fill:#ffffff;fill-opacity:1;fill-rule:nonzero;stroke:none"
             x="0"
             y="0"
             id="tspan4216">8</tspan><tspan
             style="font-variant:normal;font-weight:normal;font-size:8px;font-family:Arial;-inkscape-font-specification:Arial;writing-mode:lr-tb;fill:#ffffff;fill-opacity:1;fill-rule:nonzero;stroke:none"
             x="-23.351601 -18.718788 -10.808632"
             y="105.695"
             sodipodi:role="line"
             id="tspan4218">kWh</tspan><tspan
             style="font-variant:normal;font-weight:normal;font-size:8px;font-family:Arial;-inkscape-font-specification:Arial;writing-mode:lr-tb;fill:#ffffff;fill-opacity:1;fill-rule:nonzero;stroke:none"
             x="-21.53129 -16.453165 -11.53129"
             y="114.66062"
             sodipodi:role="line"
             id="tspan4220">per</tspan><tspan
             style="font-variant:normal;font-weight:normal;font-size:8px;font-family:Arial;-inkscape-font-specification:Arial;writing-mode:lr-tb;fill:#ffffff;fill-opacity:1;fill-rule:nonzero;stroke:none"
             x="-22.273478 -17.195353 -12.293011"
             y="123.62624"
             sodipodi:role="line"
             id="tspan4222">day</tspan></text>
</g></g><path
       id="path4242"
       style="fill:#999999;fill-opacity:1;fill-rule:nonzero;stroke:none"
       d="m 362.02918,38.114467 148.76803,0 0,276.672323 -148.76803,0 0,-276.672323 z"
       inkscape:connector-curvature="0" /></g></svg>